<svg width="233" height="25" viewBox="0 0 233 25" fill="none" xmlns="http://www.w3.org/2000/svg">
<rect width="233" height="25" rx="4" fill="#D00000"/>
<path d="M27.5511 7.242V8.278H24.8911V17H23.6171V8.278H20.9431V7.242H27.5511ZM33.0673 9.188C33.646 9.188 34.1687 9.314 34.6353 9.566C35.102 9.80867 35.466 10.1773 35.7273 10.672C35.998 11.1667 36.1333 11.7687 36.1333 12.478V17H34.8733V12.66C34.8733 11.8947 34.682 11.3113 34.2993 10.91C33.9167 10.4993 33.394 10.294 32.7313 10.294C32.0593 10.294 31.5227 10.504 31.1213 10.924C30.7293 11.344 30.5333 11.9553 30.5333 12.758V17H29.2593V6.64H30.5333V10.42C30.7853 10.028 31.1307 9.72467 31.5693 9.51C32.0173 9.29533 32.5167 9.188 33.0673 9.188ZM39.0124 8.082C38.7697 8.082 38.5644 7.998 38.3964 7.83C38.2284 7.662 38.1444 7.45667 38.1444 7.214C38.1444 6.97133 38.2284 6.766 38.3964 6.598C38.5644 6.43 38.7697 6.346 39.0124 6.346C39.2457 6.346 39.4417 6.43 39.6004 6.598C39.7684 6.766 39.8524 6.97133 39.8524 7.214C39.8524 7.45667 39.7684 7.662 39.6004 7.83C39.4417 7.998 39.2457 8.082 39.0124 8.082ZM39.6284 9.328V17H38.3544V9.328H39.6284ZM44.6557 17.126C44.0677 17.126 43.5404 17.028 43.0737 16.832C42.6071 16.6267 42.2384 16.3467 41.9677 15.992C41.6971 15.628 41.5477 15.2127 41.5197 14.746H42.8357C42.8731 15.1287 43.0504 15.4413 43.3677 15.684C43.6944 15.9267 44.1191 16.048 44.6417 16.048C45.1271 16.048 45.5097 15.9407 45.7897 15.726C46.0697 15.5113 46.2097 15.2407 46.2097 14.914C46.2097 14.578 46.0604 14.3307 45.7617 14.172C45.4631 14.004 45.0011 13.8407 44.3757 13.682C43.8064 13.5327 43.3397 13.3833 42.9757 13.234C42.6211 13.0753 42.3131 12.8467 42.0517 12.548C41.7997 12.24 41.6737 11.8387 41.6737 11.344C41.6737 10.952 41.7904 10.5927 42.0237 10.266C42.2571 9.93933 42.5884 9.68267 43.0177 9.496C43.4471 9.3 43.9371 9.202 44.4877 9.202C45.3371 9.202 46.0231 9.41667 46.5457 9.846C47.0684 10.2753 47.3484 10.8633 47.3857 11.61H46.1117C46.0837 11.2087 45.9204 10.8867 45.6217 10.644C45.3324 10.4013 44.9404 10.28 44.4457 10.28C43.9884 10.28 43.6244 10.378 43.3537 10.574C43.0831 10.77 42.9477 11.0267 42.9477 11.344C42.9477 11.596 43.0271 11.806 43.1857 11.974C43.3537 12.1327 43.5591 12.2633 43.8017 12.366C44.0537 12.4593 44.3991 12.5667 44.8377 12.688C45.3884 12.8373 45.8364 12.9867 46.1817 13.136C46.5271 13.276 46.8211 13.4907 47.0637 13.78C47.3157 14.0693 47.4464 14.4473 47.4557 14.914C47.4557 15.334 47.3391 15.712 47.1057 16.048C46.8724 16.384 46.5411 16.65 46.1117 16.846C45.6917 17.0327 45.2064 17.126 44.6557 17.126ZM56.3886 10.378H54.7786V17H53.5046V10.378H52.5106V9.328H53.5046V8.782C53.5046 7.92333 53.7239 7.298 54.1626 6.906C54.6106 6.50467 55.3246 6.304 56.3046 6.304V7.368C55.7446 7.368 55.3479 7.48 55.1146 7.704C54.8906 7.91867 54.7786 8.278 54.7786 8.782V9.328H56.3886V10.378ZM58.672 8.082C58.4293 8.082 58.224 7.998 58.056 7.83C57.888 7.662 57.804 7.45667 57.804 7.214C57.804 6.97133 57.888 6.766 58.056 6.598C58.224 6.43 58.4293 6.346 58.672 6.346C58.9053 6.346 59.1013 6.43 59.26 6.598C59.428 6.766 59.512 6.97133 59.512 7.214C59.512 7.45667 59.428 7.662 59.26 7.83C59.1013 7.998 58.9053 8.082 58.672 8.082ZM59.288 9.328V17H58.014V9.328H59.288ZM68.5993 12.87C68.5993 13.1127 68.5853 13.3693 68.5573 13.64H62.4253C62.472 14.396 62.7287 14.9887 63.1953 15.418C63.6713 15.838 64.2453 16.048 64.9173 16.048C65.468 16.048 65.9253 15.922 66.2893 15.67C66.6627 15.4087 66.924 15.0633 67.0733 14.634H68.4453C68.24 15.3713 67.8293 15.9733 67.2133 16.44C66.5973 16.8973 65.832 17.126 64.9173 17.126C64.1893 17.126 63.536 16.9627 62.9573 16.636C62.388 16.3093 61.94 15.8473 61.6133 15.25C61.2867 14.6433 61.1233 13.9433 61.1233 13.15C61.1233 12.3567 61.282 11.6613 61.5993 11.064C61.9167 10.4667 62.36 10.0093 62.9293 9.692C63.508 9.36533 64.1707 9.202 64.9173 9.202C65.6453 9.202 66.2893 9.36067 66.8493 9.678C67.4093 9.99533 67.8387 10.434 68.1373 10.994C68.4453 11.5447 68.5993 12.17 68.5993 12.87ZM67.2833 12.604C67.2833 12.1187 67.176 11.7033 66.9613 11.358C66.7467 11.0033 66.4527 10.7373 66.0793 10.56C65.7153 10.3733 65.3093 10.28 64.8613 10.28C64.2173 10.28 63.6667 10.4853 63.2093 10.896C62.7613 11.3067 62.5047 11.876 62.4393 12.604H67.2833ZM71.695 6.64V17H70.421V6.64H71.695ZM73.5303 13.136C73.5303 12.352 73.6889 11.666 74.0063 11.078C74.3236 10.4807 74.7576 10.0187 75.3083 9.692C75.8683 9.36533 76.4936 9.202 77.1843 9.202C77.7816 9.202 78.3369 9.342 78.8503 9.622C79.3636 9.89267 79.7556 10.252 80.0263 10.7V6.64H81.3143V17H80.0263V15.558C79.7743 16.0153 79.4009 16.3933 78.9063 16.692C78.4116 16.9813 77.8329 17.126 77.1703 17.126C76.4889 17.126 75.8683 16.958 75.3083 16.622C74.7576 16.286 74.3236 15.8147 74.0063 15.208C73.6889 14.6013 73.5303 13.9107 73.5303 13.136ZM80.0263 13.15C80.0263 12.5713 79.9096 12.0673 79.6763 11.638C79.4429 11.2087 79.1256 10.882 78.7243 10.658C78.3323 10.4247 77.8983 10.308 77.4223 10.308C76.9463 10.308 76.5123 10.42 76.1203 10.644C75.7283 10.868 75.4156 11.1947 75.1823 11.624C74.9489 12.0533 74.8323 12.5573 74.8323 13.136C74.8323 13.724 74.9489 14.2373 75.1823 14.676C75.4156 15.1053 75.7283 15.4367 76.1203 15.67C76.5123 15.894 76.9463 16.006 77.4223 16.006C77.8983 16.006 78.3323 15.894 78.7243 15.67C79.1256 15.4367 79.4429 15.1053 79.6763 14.676C79.9096 14.2373 80.0263 13.7287 80.0263 13.15ZM87.0036 13.15C87.0036 12.3567 87.1623 11.666 87.4796 11.078C87.797 10.4807 88.2356 10.0187 88.7956 9.692C89.365 9.36533 90.0136 9.202 90.7416 9.202C91.6843 9.202 92.459 9.43067 93.0656 9.888C93.6816 10.3453 94.0876 10.98 94.2836 11.792H92.9116C92.781 11.3253 92.5243 10.9567 92.1416 10.686C91.7683 10.4153 91.3016 10.28 90.7416 10.28C90.0136 10.28 89.4256 10.532 88.9776 11.036C88.5296 11.5307 88.3056 12.2353 88.3056 13.15C88.3056 14.074 88.5296 14.788 88.9776 15.292C89.4256 15.796 90.0136 16.048 90.7416 16.048C91.3016 16.048 91.7683 15.9173 92.1416 15.656C92.515 15.3947 92.7716 15.0213 92.9116 14.536H94.2836C94.0783 15.32 93.6676 15.95 93.0516 16.426C92.4356 16.8927 91.6656 17.126 90.7416 17.126C90.0136 17.126 89.365 16.9627 88.7956 16.636C88.2356 16.3093 87.797 15.8473 87.4796 15.25C87.1623 14.6527 87.0036 13.9527 87.0036 13.15ZM95.6475 13.136C95.6475 12.352 95.8062 11.666 96.1235 11.078C96.4409 10.4807 96.8749 10.0187 97.4255 9.692C97.9855 9.36533 98.6062 9.202 99.2875 9.202C99.9595 9.202 100.543 9.34667 101.038 9.636C101.532 9.92533 101.901 10.2893 102.144 10.728V9.328H103.432V17H102.144V15.572C101.892 16.02 101.514 16.3933 101.01 16.692C100.515 16.9813 99.9362 17.126 99.2735 17.126C98.5922 17.126 97.9762 16.958 97.4255 16.622C96.8749 16.286 96.4409 15.8147 96.1235 15.208C95.8062 14.6013 95.6475 13.9107 95.6475 13.136ZM102.144 13.15C102.144 12.5713 102.027 12.0673 101.794 11.638C101.56 11.2087 101.243 10.882 100.842 10.658C100.45 10.4247 100.016 10.308 99.5395 10.308C99.0635 10.308 98.6295 10.42 98.2375 10.644C97.8455 10.868 97.5329 11.1947 97.2995 11.624C97.0662 12.0533 96.9495 12.5573 96.9495 13.136C96.9495 13.724 97.0662 14.2373 97.2995 14.676C97.5329 15.1053 97.8455 15.4367 98.2375 15.67C98.6295 15.894 99.0635 16.006 99.5395 16.006C100.016 16.006 100.45 15.894 100.842 15.67C101.243 15.4367 101.56 15.1053 101.794 14.676C102.027 14.2373 102.144 13.7287 102.144 13.15ZM109.462 9.188C110.396 9.188 111.152 9.47267 111.73 10.042C112.309 10.602 112.598 11.414 112.598 12.478V17H111.338V12.66C111.338 11.8947 111.147 11.3113 110.764 10.91C110.382 10.4993 109.859 10.294 109.196 10.294C108.524 10.294 107.988 10.504 107.586 10.924C107.194 11.344 106.998 11.9553 106.998 12.758V17H105.724V9.328H106.998V10.42C107.25 10.028 107.591 9.72467 108.02 9.51C108.459 9.29533 108.94 9.188 109.462 9.188ZM118.558 9.188C119.491 9.188 120.247 9.47267 120.826 10.042C121.404 10.602 121.694 11.414 121.694 12.478V17H120.434V12.66C120.434 11.8947 120.242 11.3113 119.86 10.91C119.477 10.4993 118.954 10.294 118.292 10.294C117.62 10.294 117.083 10.504 116.682 10.924C116.29 11.344 116.094 11.9553 116.094 12.758V17H114.82V9.328H116.094V10.42C116.346 10.028 116.686 9.72467 117.116 9.51C117.554 9.29533 118.035 9.188 118.558 9.188ZM127.261 17.126C126.542 17.126 125.889 16.9627 125.301 16.636C124.722 16.3093 124.265 15.8473 123.929 15.25C123.602 14.6433 123.439 13.9433 123.439 13.15C123.439 12.366 123.607 11.6753 123.943 11.078C124.288 10.4713 124.755 10.0093 125.343 9.692C125.931 9.36533 126.589 9.202 127.317 9.202C128.045 9.202 128.703 9.36533 129.291 9.692C129.879 10.0093 130.341 10.4667 130.677 11.064C131.022 11.6613 131.195 12.3567 131.195 13.15C131.195 13.9433 131.017 14.6433 130.663 15.25C130.317 15.8473 129.846 16.3093 129.249 16.636C128.651 16.9627 127.989 17.126 127.261 17.126ZM127.261 16.006C127.718 16.006 128.147 15.8987 128.549 15.684C128.95 15.4693 129.272 15.1473 129.515 14.718C129.767 14.2887 129.893 13.766 129.893 13.15C129.893 12.534 129.771 12.0113 129.529 11.582C129.286 11.1527 128.969 10.8353 128.577 10.63C128.185 10.4153 127.76 10.308 127.303 10.308C126.836 10.308 126.407 10.4153 126.015 10.63C125.632 10.8353 125.324 11.1527 125.091 11.582C124.857 12.0113 124.741 12.534 124.741 13.15C124.741 13.7753 124.853 14.3027 125.077 14.732C125.31 15.1613 125.618 15.4833 126.001 15.698C126.383 15.9033 126.803 16.006 127.261 16.006ZM134.564 10.378V14.9C134.564 15.2733 134.643 15.5393 134.802 15.698C134.96 15.8473 135.236 15.922 135.628 15.922H136.566V17H135.418C134.708 17 134.176 16.8367 133.822 16.51C133.467 16.1833 133.29 15.6467 133.29 14.9V10.378H132.296V9.328H133.29V7.396H134.564V9.328H136.566V10.378H134.564ZM143.396 10.756C143.657 10.2987 144.04 9.92533 144.544 9.636C145.048 9.34667 145.622 9.202 146.266 9.202C146.956 9.202 147.577 9.36533 148.128 9.692C148.678 10.0187 149.112 10.4807 149.43 11.078C149.747 11.666 149.906 12.352 149.906 13.136C149.906 13.9107 149.747 14.6013 149.43 15.208C149.112 15.8147 148.674 16.286 148.114 16.622C147.563 16.958 146.947 17.126 146.266 17.126C145.603 17.126 145.02 16.9813 144.516 16.692C144.021 16.4027 143.648 16.034 143.396 15.586V17H142.122V6.64H143.396V10.756ZM148.604 13.136C148.604 12.5573 148.487 12.0533 148.254 11.624C148.02 11.1947 147.703 10.868 147.302 10.644C146.91 10.42 146.476 10.308 146 10.308C145.533 10.308 145.099 10.4247 144.698 10.658C144.306 10.882 143.988 11.2133 143.746 11.652C143.512 12.0813 143.396 12.5807 143.396 13.15C143.396 13.7287 143.512 14.2373 143.746 14.676C143.988 15.1053 144.306 15.4367 144.698 15.67C145.099 15.894 145.533 16.006 146 16.006C146.476 16.006 146.91 15.894 147.302 15.67C147.703 15.4367 148.02 15.1053 148.254 14.676C148.487 14.2373 148.604 13.724 148.604 13.136ZM158.723 12.87C158.723 13.1127 158.709 13.3693 158.681 13.64H152.549C152.595 14.396 152.852 14.9887 153.319 15.418C153.795 15.838 154.369 16.048 155.041 16.048C155.591 16.048 156.049 15.922 156.413 15.67C156.786 15.4087 157.047 15.0633 157.197 14.634H158.569C158.363 15.3713 157.953 15.9733 157.337 16.44C156.721 16.8973 155.955 17.126 155.041 17.126C154.313 17.126 153.659 16.9627 153.081 16.636C152.511 16.3093 152.063 15.8473 151.737 15.25C151.41 14.6433 151.247 13.9433 151.247 13.15C151.247 12.3567 151.405 11.6613 151.723 11.064C152.04 10.4667 152.483 10.0093 153.053 9.692C153.631 9.36533 154.294 9.202 155.041 9.202C155.769 9.202 156.413 9.36067 156.973 9.678C157.533 9.99533 157.962 10.434 158.261 10.994C158.569 11.5447 158.723 12.17 158.723 12.87ZM157.407 12.604C157.407 12.1187 157.299 11.7033 157.085 11.358C156.87 11.0033 156.576 10.7373 156.203 10.56C155.839 10.3733 155.433 10.28 154.985 10.28C154.341 10.28 153.79 10.4853 153.333 10.896C152.885 11.3067 152.628 11.876 152.563 12.604H157.407ZM171.417 12.87C171.417 13.1127 171.403 13.3693 171.375 13.64H165.243C165.289 14.396 165.546 14.9887 166.013 15.418C166.489 15.838 167.063 16.048 167.735 16.048C168.285 16.048 168.743 15.922 169.107 15.67C169.48 15.4087 169.741 15.0633 169.891 14.634H171.263C171.057 15.3713 170.647 15.9733 170.031 16.44C169.415 16.8973 168.649 17.126 167.735 17.126C167.007 17.126 166.353 16.9627 165.775 16.636C165.205 16.3093 164.757 15.8473 164.431 15.25C164.104 14.6433 163.941 13.9433 163.941 13.15C163.941 12.3567 164.099 11.6613 164.417 11.064C164.734 10.4667 165.177 10.0093 165.747 9.692C166.325 9.36533 166.988 9.202 167.735 9.202C168.463 9.202 169.107 9.36067 169.667 9.678C170.227 9.99533 170.656 10.434 170.955 10.994C171.263 11.5447 171.417 12.17 171.417 12.87ZM170.101 12.604C170.101 12.1187 169.993 11.7033 169.779 11.358C169.564 11.0033 169.27 10.7373 168.897 10.56C168.533 10.3733 168.127 10.28 167.679 10.28C167.035 10.28 166.484 10.4853 166.027 10.896C165.579 11.3067 165.322 11.876 165.257 12.604H170.101ZM182.464 9.188C183.062 9.188 183.594 9.314 184.06 9.566C184.527 9.80867 184.896 10.1773 185.166 10.672C185.437 11.1667 185.572 11.7687 185.572 12.478V17H184.312V12.66C184.312 11.8947 184.121 11.3113 183.738 10.91C183.365 10.4993 182.856 10.294 182.212 10.294C181.55 10.294 181.022 10.5087 180.63 10.938C180.238 11.358 180.042 11.9693 180.042 12.772V17H178.782V12.66C178.782 11.8947 178.591 11.3113 178.208 10.91C177.835 10.4993 177.326 10.294 176.682 10.294C176.02 10.294 175.492 10.5087 175.1 10.938C174.708 11.358 174.512 11.9693 174.512 12.772V17H173.238V9.328H174.512V10.434C174.764 10.0327 175.1 9.72467 175.52 9.51C175.95 9.29533 176.421 9.188 176.934 9.188C177.578 9.188 178.148 9.33267 178.642 9.622C179.137 9.91133 179.506 10.336 179.748 10.896C179.963 10.3547 180.318 9.93467 180.812 9.636C181.307 9.33733 181.858 9.188 182.464 9.188ZM189.076 10.742C189.328 10.3033 189.702 9.93933 190.196 9.65C190.7 9.35133 191.284 9.202 191.946 9.202C192.628 9.202 193.244 9.36533 193.794 9.692C194.354 10.0187 194.793 10.4807 195.11 11.078C195.428 11.666 195.586 12.352 195.586 13.136C195.586 13.9107 195.428 14.6013 195.11 15.208C194.793 15.8147 194.354 16.286 193.794 16.622C193.244 16.958 192.628 17.126 191.946 17.126C191.293 17.126 190.714 16.9813 190.21 16.692C189.716 16.3933 189.338 16.0247 189.076 15.586V20.64H187.802V9.328H189.076V10.742ZM194.284 13.136C194.284 12.5573 194.168 12.0533 193.934 11.624C193.701 11.1947 193.384 10.868 192.982 10.644C192.59 10.42 192.156 10.308 191.68 10.308C191.214 10.308 190.78 10.4247 190.378 10.658C189.986 10.882 189.669 11.2133 189.426 11.652C189.193 12.0813 189.076 12.5807 189.076 13.15C189.076 13.7287 189.193 14.2373 189.426 14.676C189.669 15.1053 189.986 15.4367 190.378 15.67C190.78 15.894 191.214 16.006 191.68 16.006C192.156 16.006 192.59 15.894 192.982 15.67C193.384 15.4367 193.701 15.1053 193.934 14.676C194.168 14.2373 194.284 13.724 194.284 13.136ZM198.957 10.378V14.9C198.957 15.2733 199.036 15.5393 199.195 15.698C199.354 15.8473 199.629 15.922 200.021 15.922H200.959V17H199.811C199.102 17 198.57 16.8367 198.215 16.51C197.86 16.1833 197.683 15.6467 197.683 14.9V10.378H196.689V9.328H197.683V7.396H198.957V9.328H200.959V10.378H198.957ZM209.251 9.328L204.631 20.612H203.315L204.827 16.916L201.733 9.328H203.147L205.555 15.544L207.935 9.328H209.251ZM211.077 17.084C210.835 17.084 210.629 17 210.461 16.832C210.293 16.664 210.209 16.4587 210.209 16.216C210.209 15.9733 210.293 15.768 210.461 15.6C210.629 15.432 210.835 15.348 211.077 15.348C211.311 15.348 211.507 15.432 211.665 15.6C211.833 15.768 211.917 15.9733 211.917 16.216C211.917 16.4587 211.833 16.664 211.665 16.832C211.507 17 211.311 17.084 211.077 17.084Z" fill="white"/>
</svg>
